<svg width="194" height="266" viewBox="0 0 194 266" fill="none" xmlns="http://www.w3.org/2000/svg">
<g clip-path="url(#clip0_140_98)">
<path d="M171.721 265.571H87.2578C74.9723 265.571 64.9786 255.56 64.9786 243.254V22.3167C64.9786 10.0105 74.9723 0 87.2578 0H171.721C184.006 0 194 10.0105 194 22.3167V243.254C194 255.56 184.006 265.571 171.721 265.571Z" fill="#DADBDC"/>
<path d="M171.782 259.529H87.1966C78.1039 259.529 70.7037 252.117 70.7037 243.009V22.1283C70.7037 13.0203 78.1039 5.60767 87.1966 5.60767H171.782C180.875 5.60767 188.275 13.0203 188.275 22.1283V243.009C188.275 252.117 180.875 259.529 171.782 259.529Z" fill="white"/>
<path d="M141.451 20.3102H117.532C114.374 20.3102 111.807 17.7386 111.807 14.5755C111.807 11.4125 114.374 8.84082 117.532 8.84082H141.451C144.609 8.84082 147.176 11.4125 147.176 14.5755C147.176 17.7386 144.609 20.3102 141.451 20.3102Z" fill="#DADBDC"/>
<path d="M165.86 87.7598H95.8694C94.483 87.7598 93.3546 86.3229 93.3546 84.5617C93.3546 82.8005 94.483 81.3636 95.8694 81.3636H165.86C167.247 81.3636 168.375 82.8005 168.375 84.5617C168.375 86.3229 167.247 87.7598 165.86 87.7598Z" fill="#DADBDC"/>
<path d="M165.86 101.932H95.8694C94.483 101.932 93.3546 100.495 93.3546 98.7342C93.3546 96.973 94.483 95.5361 95.8694 95.5361H165.86C167.247 95.5361 168.375 96.973 168.375 98.7342C168.375 100.495 167.247 101.932 165.86 101.932Z" fill="#DADBDC"/>
<path d="M145.79 116.105H95.8694C94.483 116.105 93.3546 114.668 93.3546 112.907C93.3546 111.145 94.483 109.708 95.8694 109.708H145.79C147.176 109.708 148.305 111.145 148.305 112.907C148.305 114.668 147.176 116.105 145.79 116.105Z" fill="#DADBDC"/>
<path d="M129.489 199.431C145.989 199.431 159.365 186.032 159.365 169.505C159.365 152.977 145.989 139.578 129.489 139.578C112.989 139.578 99.6133 152.977 99.6133 169.505C99.6133 186.032 112.989 199.431 129.489 199.431Z" fill="#79BAFC"/>
<path d="M121.542 170.127C123.086 173.154 124.63 176.186 126.174 179.213C126.616 180.085 127.915 179.809 128.173 178.95C130.198 172.186 133.959 166.022 139.028 161.119C140.043 160.138 138.495 158.592 137.48 159.568C132.144 164.729 128.195 171.253 126.06 178.367L128.059 178.104C126.515 175.077 124.971 172.045 123.428 169.018C122.789 167.761 120.9 168.869 121.538 170.122H121.542V170.127Z" fill="white"/>
<path d="M48.9493 133.304L41.7066 135.78L41.5929 125.305L48.1839 125.23L48.9493 133.304Z" fill="#F3A3A6"/>
<path d="M42.4414 128.196C46.4414 128.196 49.6841 124.948 49.6841 120.941C49.6841 116.935 46.4414 113.686 42.4414 113.686C38.4414 113.686 35.1987 116.935 35.1987 120.941C35.1987 124.948 38.4414 128.196 42.4414 128.196Z" fill="#F3A3A6"/>
<path d="M44.4227 120.201C43.2112 120.179 42.402 118.961 41.9166 117.844C41.4311 116.731 40.9325 115.448 39.8085 114.996C38.8857 114.628 37.2937 117.2 36.5589 116.53C35.7935 115.829 36.4933 112.175 37.2893 111.513C38.0853 110.852 39.1831 110.712 40.2152 110.65C42.7388 110.506 45.2755 110.681 47.7553 111.172C49.2861 111.474 50.8693 111.938 51.9846 113.034C53.3973 114.422 53.7778 116.538 53.9003 118.519C54.0271 120.543 53.9309 122.667 52.9687 124.455C52.0021 126.238 49.9596 127.57 47.9784 127.14C47.7685 126.067 47.9565 124.963 48.0221 123.868C48.0877 122.777 47.9915 121.599 47.318 120.735C46.6444 119.872 45.2187 119.544 44.4533 120.324" fill="#2F2E43"/>
<path d="M53.358 122.615C54.0753 122.076 54.9369 121.62 55.8291 121.721C56.7956 121.826 57.6179 122.615 57.8759 123.552C58.134 124.49 57.8672 125.528 57.2811 126.304C56.695 127.079 55.816 127.596 54.88 127.859C54.3377 128.012 53.7472 128.078 53.2268 127.859C52.4614 127.539 52.0415 126.571 52.3302 125.791" fill="#2F2E43"/>
<path d="M26.4078 191.155C25.9529 193.543 26.8583 195.712 28.4371 195.996C30.0116 196.281 31.6605 194.573 32.1153 192.185C32.3122 191.234 32.2684 190.248 31.9885 189.315L37.5605 151.897L30.0554 150.57L27.5843 188.522C26.9807 189.298 26.574 190.2 26.4078 191.16V191.155Z" fill="#F3A3A6"/>
<path d="M41.5754 130.974L36.4627 131.031C32.8544 131.618 31.8922 133.563 31.1137 137.138C29.9197 142.592 28.3977 149.86 28.717 149.961C29.2287 150.127 37.9759 154.132 42.402 153.142L41.5754 130.974Z" fill="#79BAFC"/>
<path d="M47.854 249.896L41.0491 249.972L41.1569 259.64L47.9618 259.564L47.854 249.896Z" fill="#F3A3A6"/>
<path d="M34.5777 265.571C33.8604 265.579 33.2263 265.571 32.7452 265.531C30.9345 265.387 29.1982 264.068 28.3191 263.297C27.9255 262.951 27.7942 262.39 27.9911 261.908C28.131 261.562 28.4197 261.299 28.7783 261.19L33.5412 259.77L41.2168 254.456L41.3043 254.61C41.3393 254.666 42.1134 256.029 42.3758 256.953C42.4764 257.304 42.4546 257.597 42.3102 257.825C42.2096 257.983 42.0697 258.075 41.956 258.132C42.0959 258.276 42.5377 258.57 43.8935 258.771C45.866 259.065 46.264 257.01 46.2771 256.923L46.2902 256.853L46.3471 256.813C47.2787 256.195 47.8516 255.915 48.0528 255.972C48.1796 256.007 48.3852 256.068 49.0062 261.641C49.0631 261.816 49.4698 263.095 49.2162 264.327C48.9406 265.667 43.1106 265.268 41.9472 265.176C41.9122 265.181 37.5561 265.54 34.569 265.571H34.5777Z" fill="#2F2E43"/>
<path d="M67.142 242.07L61.4082 245.742L66.6073 253.888L72.3411 250.216L67.142 242.07Z" fill="#F3A3A6"/>
<path d="M59.7041 263.963C58.9037 263.972 58.169 263.884 57.6441 263.796C57.128 263.709 56.7213 263.306 56.6338 262.789C56.5682 262.416 56.6776 262.044 56.9225 261.764L60.2114 258.035L63.9159 249.457L64.0733 249.541C64.1302 249.571 65.5079 250.316 66.2208 250.96C66.4919 251.205 66.6275 251.464 66.6275 251.736C66.6275 251.924 66.5575 252.077 66.4876 252.182C66.6844 252.231 67.2136 252.244 68.4688 251.696C70.297 250.899 69.5491 248.945 69.5141 248.866L69.4879 248.8L69.5185 248.739C69.9821 247.723 70.3232 247.179 70.52 247.118C70.6469 247.083 70.8524 247.022 74.3251 251.42C74.465 251.538 75.4884 252.406 75.9214 253.584C76.3938 254.868 71.2417 257.619 70.2008 258.158C70.1701 258.184 64.7862 262.193 62.5732 263.341C61.6941 263.796 60.6488 263.945 59.6954 263.954L59.7041 263.963Z" fill="#2F2E43"/>
<path d="M51.954 168.966L32.9026 169.176L31.3718 186.945L39.6642 252.458L49.3911 252.349L45.0831 214.506L61.2392 248.537L69.8158 242.378L57.1411 210.581C57.1411 210.581 61.2348 182.713 57.7009 175.822C54.167 168.931 51.9584 168.957 51.9584 168.957V168.966H51.954Z" fill="#2F2E43"/>
<path d="M61.4403 169.943L31.1837 170.28L39.826 130.996L53.0124 130.847L61.4403 169.943Z" fill="#79BAFC"/>
<path d="M64.3969 190.735C64.9043 193.114 64.0471 195.3 62.4769 195.62C60.9068 195.939 59.223 194.27 58.7156 191.891C58.4969 190.945 58.5188 189.959 58.7769 189.017L52.3739 151.731L59.8484 150.237L63.1592 188.128C63.7803 188.89 64.2045 189.784 64.3969 190.739V190.735Z" fill="#F3A3A6"/>
<path d="M47.8997 130.904L53.0124 130.847C56.6337 131.355 57.6353 133.278 58.4969 136.836C59.809 142.264 61.4928 149.492 61.1779 149.602C60.6662 149.777 52.0152 153.974 47.5673 153.085L47.904 130.904H47.8997Z" fill="#79BAFC"/>
<path d="M94.0675 265.571C94.0675 265.807 93.8751 266 93.6389 266H0.428613C0.192439 266 0 265.807 0 265.571C0 265.334 0.192439 265.141 0.428613 265.141H93.6389C93.8751 265.141 94.0675 265.334 94.0675 265.571Z" fill="#3F3D58"/>
</g>
<defs>
<clipPath id="clip0_140_98">
<rect width="194" height="266" fill="white"/>
</clipPath>
</defs>
</svg>
